<mxfile host="Electron" modified="2023-11-06T17:49:46.829Z" agent="Mozilla/5.0 (Windows NT 10.0; Win64; x64) AppleWebKit/537.36 (KHTML, like Gecko) draw.io/21.7.5 Chrome/114.0.5735.289 Electron/25.8.1 Safari/537.36" etag="Y4iXEseHXfkEXgEHAeB0" version="21.7.5" type="device">
  <diagram name="Ejercicio 21" id="fJ1094l9_pV4toqEcOyA">
    <mxGraphModel dx="714" dy="918" grid="1" gridSize="10" guides="1" tooltips="1" connect="1" arrows="1" fold="1" page="1" pageScale="1" pageWidth="827" pageHeight="1169" math="0" shadow="0">
      <root>
        <mxCell id="0" />
        <mxCell id="1" parent="0" />
        <mxCell id="-1Fb5h5Wd84T3EEWfz7V-1" value="&lt;p style=&quot;margin:0px;margin-top:4px;text-align:center;&quot;&gt;&lt;i&gt;&amp;lt;&amp;lt;Abstract&amp;gt;&amp;gt;&lt;/i&gt;&lt;br&gt;&lt;b&gt;Usuario&lt;/b&gt;&lt;/p&gt;&lt;hr size=&quot;1&quot;&gt;&lt;p style=&quot;margin:0px;margin-left:4px;&quot;&gt;- nombre: String&lt;br&gt;- saldo: Real&lt;/p&gt;&lt;hr size=&quot;1&quot;&gt;&lt;p style=&quot;margin:0px;margin-left:4px;&quot;&gt;+ &amp;lt;&amp;lt;create&amp;gt;&amp;gt; (nombre:String)&lt;/p&gt;&lt;p style=&quot;margin:0px;margin-left:4px;&quot;&gt;+ procesarViaje()&lt;/p&gt;&lt;p style=&quot;margin:0px;margin-left:4px;&quot;&gt;+ cargarSaldo(monto:Real)&lt;br&gt;&lt;/p&gt;&lt;p style=&quot;margin:0px;margin-left:4px;&quot;&gt;# &amp;lt;&amp;lt;abstract&amp;gt;&amp;gt;calcularComision(monto:Real)&lt;/p&gt;&lt;p style=&quot;margin:0px;margin-left:4px;&quot;&gt;# &amp;lt;&amp;lt;abstract&amp;gt;&amp;gt; cargarMontoRegalo(monto:Real)&lt;/p&gt;" style="verticalAlign=top;align=left;overflow=fill;fontSize=12;fontFamily=Helvetica;html=1;whiteSpace=wrap;" parent="1" vertex="1">
          <mxGeometry x="173" y="11" width="270" height="169" as="geometry" />
        </mxCell>
        <mxCell id="-1Fb5h5Wd84T3EEWfz7V-2" value="Conductor" style="swimlane;fontStyle=1;align=center;verticalAlign=top;childLayout=stackLayout;horizontal=1;startSize=26;horizontalStack=0;resizeParent=1;resizeParentMax=0;resizeLast=0;collapsible=1;marginBottom=0;whiteSpace=wrap;html=1;" parent="1" vertex="1">
          <mxGeometry x="50" y="227" width="200" height="120" as="geometry" />
        </mxCell>
        <mxCell id="-1Fb5h5Wd84T3EEWfz7V-4" value="" style="line;strokeWidth=1;fillColor=none;align=left;verticalAlign=middle;spacingTop=-1;spacingLeft=3;spacingRight=3;rotatable=0;labelPosition=right;points=[];portConstraint=eastwest;strokeColor=inherit;" parent="-1Fb5h5Wd84T3EEWfz7V-2" vertex="1">
          <mxGeometry y="26" width="200" height="8" as="geometry" />
        </mxCell>
        <mxCell id="-1Fb5h5Wd84T3EEWfz7V-5" value="+ &amp;lt;&amp;lt;create&amp;gt;&amp;gt; (nombre:String, vehiculo:Vehiculo)&lt;br&gt;# calcularComision(monto:Real): Real&lt;br&gt;# cargarMontoRegalo()" style="text;strokeColor=none;fillColor=none;align=left;verticalAlign=top;spacingLeft=4;spacingRight=4;overflow=hidden;rotatable=0;points=[[0,0.5],[1,0.5]];portConstraint=eastwest;whiteSpace=wrap;html=1;" parent="-1Fb5h5Wd84T3EEWfz7V-2" vertex="1">
          <mxGeometry y="34" width="200" height="86" as="geometry" />
        </mxCell>
        <mxCell id="-1Fb5h5Wd84T3EEWfz7V-6" value="Pasajero" style="swimlane;fontStyle=1;align=center;verticalAlign=top;childLayout=stackLayout;horizontal=1;startSize=26;horizontalStack=0;resizeParent=1;resizeParentMax=0;resizeLast=0;collapsible=1;marginBottom=0;whiteSpace=wrap;html=1;" parent="1" vertex="1">
          <mxGeometry x="380" y="227" width="190" height="150" as="geometry" />
        </mxCell>
        <mxCell id="-1Fb5h5Wd84T3EEWfz7V-8" value="" style="line;strokeWidth=1;fillColor=none;align=left;verticalAlign=middle;spacingTop=-1;spacingLeft=3;spacingRight=3;rotatable=0;labelPosition=right;points=[];portConstraint=eastwest;strokeColor=inherit;" parent="-1Fb5h5Wd84T3EEWfz7V-6" vertex="1">
          <mxGeometry y="26" width="190" height="8" as="geometry" />
        </mxCell>
        <mxCell id="-1Fb5h5Wd84T3EEWfz7V-9" value="+ &amp;lt;&amp;lt;create&amp;gt;&amp;gt; (nombre:String)&lt;br&gt;- viajeMasReciente():Viaje&lt;br&gt;# cargarMontoRegalo()&lt;br&gt;# calcularComision(monto:Real): Real&lt;br&gt;- tieneSaldoSuficiente():Boolean&lt;br&gt;+ reservarLugar(viaje:Viaje)" style="text;strokeColor=none;fillColor=none;align=left;verticalAlign=top;spacingLeft=4;spacingRight=4;overflow=hidden;rotatable=0;points=[[0,0.5],[1,0.5]];portConstraint=eastwest;whiteSpace=wrap;html=1;" parent="-1Fb5h5Wd84T3EEWfz7V-6" vertex="1">
          <mxGeometry y="34" width="190" height="116" as="geometry" />
        </mxCell>
        <mxCell id="Mk_A9W_ploVlwxeX-pg--1" style="edgeStyle=none;curved=1;rounded=0;orthogonalLoop=1;jettySize=auto;html=1;entryX=1;entryY=0.5;entryDx=0;entryDy=0;fontSize=12;startSize=8;endSize=8;" parent="-1Fb5h5Wd84T3EEWfz7V-6" source="-1Fb5h5Wd84T3EEWfz7V-9" target="-1Fb5h5Wd84T3EEWfz7V-9" edge="1">
          <mxGeometry relative="1" as="geometry" />
        </mxCell>
        <mxCell id="-1Fb5h5Wd84T3EEWfz7V-14" value="Viaje" style="swimlane;fontStyle=1;align=center;verticalAlign=top;childLayout=stackLayout;horizontal=1;startSize=26;horizontalStack=0;resizeParent=1;resizeParentMax=0;resizeLast=0;collapsible=1;marginBottom=0;whiteSpace=wrap;html=1;" parent="1" vertex="1">
          <mxGeometry x="390" y="418" width="230" height="200" as="geometry" />
        </mxCell>
        <mxCell id="-1Fb5h5Wd84T3EEWfz7V-15" value="- origen: String&lt;br&gt;- destino: String&lt;br&gt;- costoTotal: Real&lt;br&gt;- fecha: Date&lt;br&gt;" style="text;strokeColor=none;fillColor=none;align=left;verticalAlign=top;spacingLeft=4;spacingRight=4;overflow=hidden;rotatable=0;points=[[0,0.5],[1,0.5]];portConstraint=eastwest;whiteSpace=wrap;html=1;" parent="-1Fb5h5Wd84T3EEWfz7V-14" vertex="1">
          <mxGeometry y="26" width="230" height="64" as="geometry" />
        </mxCell>
        <mxCell id="-1Fb5h5Wd84T3EEWfz7V-16" value="" style="line;strokeWidth=1;fillColor=none;align=left;verticalAlign=middle;spacingTop=-1;spacingLeft=3;spacingRight=3;rotatable=0;labelPosition=right;points=[];portConstraint=eastwest;strokeColor=inherit;" parent="-1Fb5h5Wd84T3EEWfz7V-14" vertex="1">
          <mxGeometry y="90" width="230" height="8" as="geometry" />
        </mxCell>
        <mxCell id="-1Fb5h5Wd84T3EEWfz7V-17" value="+ &amp;lt;&amp;lt;create&amp;gt;&amp;gt; Viaje(conductor: Conductor, origen:String, destino:String, costoTotal:Real, fecha:Date)&lt;br&gt;+ registrarPasajero(pasajero:Pasajero)&lt;br&gt;+ puedeReservar():Boolean&lt;br&gt;+ procesarPasajeros()" style="text;strokeColor=none;fillColor=none;align=left;verticalAlign=top;spacingLeft=4;spacingRight=4;overflow=hidden;rotatable=0;points=[[0,0.5],[1,0.5]];portConstraint=eastwest;whiteSpace=wrap;html=1;" parent="-1Fb5h5Wd84T3EEWfz7V-14" vertex="1">
          <mxGeometry y="98" width="230" height="102" as="geometry" />
        </mxCell>
        <mxCell id="-1Fb5h5Wd84T3EEWfz7V-22" value="" style="endArrow=classic;html=1;rounded=0;exitX=0.001;exitY=0.042;exitDx=0;exitDy=0;entryX=1;entryY=0.048;entryDx=0;entryDy=0;exitPerimeter=0;entryPerimeter=0;" parent="1" source="-1Fb5h5Wd84T3EEWfz7V-15" edge="1">
          <mxGeometry width="50" height="50" relative="1" as="geometry">
            <mxPoint x="380" y="380" as="sourcePoint" />
            <mxPoint x="220" y="447.072" as="targetPoint" />
          </mxGeometry>
        </mxCell>
        <mxCell id="-1Fb5h5Wd84T3EEWfz7V-23" value="vehiculo" style="text;html=1;align=center;verticalAlign=middle;resizable=0;points=[];autosize=1;strokeColor=none;fillColor=none;" parent="1" vertex="1">
          <mxGeometry x="273" y="427" width="70" height="30" as="geometry" />
        </mxCell>
        <mxCell id="-1Fb5h5Wd84T3EEWfz7V-26" value="PoolCar" style="swimlane;fontStyle=1;align=center;verticalAlign=top;childLayout=stackLayout;horizontal=1;startSize=26;horizontalStack=0;resizeParent=1;resizeParentMax=0;resizeLast=0;collapsible=1;marginBottom=0;whiteSpace=wrap;html=1;" parent="1" vertex="1">
          <mxGeometry x="610" y="11" width="370" height="150" as="geometry" />
        </mxCell>
        <mxCell id="-1Fb5h5Wd84T3EEWfz7V-28" value="" style="line;strokeWidth=1;fillColor=none;align=left;verticalAlign=middle;spacingTop=-1;spacingLeft=3;spacingRight=3;rotatable=0;labelPosition=right;points=[];portConstraint=eastwest;strokeColor=inherit;" parent="-1Fb5h5Wd84T3EEWfz7V-26" vertex="1">
          <mxGeometry y="26" width="370" height="8" as="geometry" />
        </mxCell>
        <mxCell id="-1Fb5h5Wd84T3EEWfz7V-29" value="+ registrarConductor (nombre:String, vehiculo:Vehiculo): Conductor&lt;br&gt;+ registrarPasajero (nombre:String): Pasajero&lt;br&gt;+ registrarViaje (conductor:Conductor, origen:String, destino:String, costoTotal:Real, fecha:Date): Viaje&lt;br&gt;+ usuariosRegistrados(): Usuario [*]&lt;br&gt;+ listarViajesMañana(fecha:Date): Viajes[*]&lt;br&gt;+ procesarViajesMañana()" style="text;strokeColor=none;fillColor=none;align=left;verticalAlign=top;spacingLeft=4;spacingRight=4;overflow=hidden;rotatable=0;points=[[0,0.5],[1,0.5]];portConstraint=eastwest;whiteSpace=wrap;html=1;" parent="-1Fb5h5Wd84T3EEWfz7V-26" vertex="1">
          <mxGeometry y="34" width="370" height="116" as="geometry" />
        </mxCell>
        <mxCell id="-1Fb5h5Wd84T3EEWfz7V-30" value="" style="endArrow=classic;html=1;rounded=0;exitX=0;exitY=0.3;exitDx=0;exitDy=0;exitPerimeter=0;entryX=1.002;entryY=0.408;entryDx=0;entryDy=0;entryPerimeter=0;" parent="1" source="-1Fb5h5Wd84T3EEWfz7V-29" target="-1Fb5h5Wd84T3EEWfz7V-1" edge="1">
          <mxGeometry width="50" height="50" relative="1" as="geometry">
            <mxPoint x="610.3199999999999" y="66.66199999999998" as="sourcePoint" />
            <mxPoint x="450" y="80" as="targetPoint" />
          </mxGeometry>
        </mxCell>
        <mxCell id="lhc0zgkxF-0EkVLlAp2c-1" value="" style="endArrow=block;endSize=16;endFill=0;html=1;rounded=0;entryX=0.5;entryY=1;entryDx=0;entryDy=0;exitX=0.5;exitY=0;exitDx=0;exitDy=0;edgeStyle=orthogonalEdgeStyle;" parent="1" source="-1Fb5h5Wd84T3EEWfz7V-2" target="-1Fb5h5Wd84T3EEWfz7V-1" edge="1">
          <mxGeometry width="160" relative="1" as="geometry">
            <mxPoint x="380" y="290" as="sourcePoint" />
            <mxPoint x="540" y="290" as="targetPoint" />
          </mxGeometry>
        </mxCell>
        <mxCell id="lhc0zgkxF-0EkVLlAp2c-2" value="" style="endArrow=block;endSize=16;endFill=0;html=1;rounded=0;entryX=0.5;entryY=1;entryDx=0;entryDy=0;exitX=0.5;exitY=0;exitDx=0;exitDy=0;edgeStyle=orthogonalEdgeStyle;" parent="1" source="-1Fb5h5Wd84T3EEWfz7V-6" target="-1Fb5h5Wd84T3EEWfz7V-1" edge="1">
          <mxGeometry width="160" relative="1" as="geometry">
            <mxPoint x="380" y="290" as="sourcePoint" />
            <mxPoint x="540" y="290" as="targetPoint" />
          </mxGeometry>
        </mxCell>
        <mxCell id="vQJQpKatEaOadyFaAbRs-1" value="0..*&lt;br&gt;usuarios" style="text;html=1;align=center;verticalAlign=middle;resizable=0;points=[];autosize=1;strokeColor=none;fillColor=none;" parent="1" vertex="1">
          <mxGeometry x="505" y="45" width="70" height="40" as="geometry" />
        </mxCell>
        <mxCell id="vQJQpKatEaOadyFaAbRs-3" value="" style="endArrow=classic;html=1;rounded=0;exitX=0.402;exitY=0.995;exitDx=0;exitDy=0;exitPerimeter=0;entryX=0.439;entryY=-0.002;entryDx=0;entryDy=0;entryPerimeter=0;" parent="1" source="-1Fb5h5Wd84T3EEWfz7V-5" edge="1">
          <mxGeometry width="50" height="50" relative="1" as="geometry">
            <mxPoint x="169.60000000000002" y="350.05000000000007" as="sourcePoint" />
            <mxPoint x="130.23999999999995" y="417.76" as="targetPoint" />
          </mxGeometry>
        </mxCell>
        <mxCell id="vQJQpKatEaOadyFaAbRs-4" value="vehiculo" style="text;html=1;align=center;verticalAlign=middle;resizable=0;points=[];autosize=1;strokeColor=none;fillColor=none;" parent="1" vertex="1">
          <mxGeometry x="120" y="360" width="70" height="30" as="geometry" />
        </mxCell>
        <mxCell id="vQJQpKatEaOadyFaAbRs-5" value="" style="endArrow=classic;html=1;rounded=0;exitX=0.519;exitY=1.002;exitDx=0;exitDy=0;exitPerimeter=0;entryX=1;entryY=0.5;entryDx=0;entryDy=0;edgeStyle=orthogonalEdgeStyle;" parent="1" source="-1Fb5h5Wd84T3EEWfz7V-29" target="-1Fb5h5Wd84T3EEWfz7V-15" edge="1">
          <mxGeometry width="50" height="50" relative="1" as="geometry">
            <mxPoint x="740" y="340" as="sourcePoint" />
            <mxPoint x="790" y="290" as="targetPoint" />
          </mxGeometry>
        </mxCell>
        <mxCell id="vQJQpKatEaOadyFaAbRs-6" value="0..*&lt;br&gt;viajes" style="text;html=1;align=center;verticalAlign=middle;resizable=0;points=[];autosize=1;strokeColor=none;fillColor=none;" parent="1" vertex="1">
          <mxGeometry x="750" y="170" width="50" height="40" as="geometry" />
        </mxCell>
        <mxCell id="pJGsi2zjK179qFkTtm2o-1" value="" style="endArrow=classic;html=1;rounded=0;entryX=0.13;entryY=0.001;entryDx=0;entryDy=0;entryPerimeter=0;exitX=0.213;exitY=1.002;exitDx=0;exitDy=0;exitPerimeter=0;" parent="1" source="-1Fb5h5Wd84T3EEWfz7V-9" target="-1Fb5h5Wd84T3EEWfz7V-14" edge="1">
          <mxGeometry width="50" height="50" relative="1" as="geometry">
            <mxPoint x="270" y="310" as="sourcePoint" />
            <mxPoint x="320" y="260" as="targetPoint" />
          </mxGeometry>
        </mxCell>
        <mxCell id="pJGsi2zjK179qFkTtm2o-2" value="0..*&lt;br&gt;viajes" style="text;html=1;align=center;verticalAlign=middle;resizable=0;points=[];autosize=1;strokeColor=none;fillColor=none;" parent="1" vertex="1">
          <mxGeometry x="420" y="377" width="50" height="40" as="geometry" />
        </mxCell>
        <mxCell id="0_Up20GVfm_6qlC_5zqZ-1" style="edgeStyle=orthogonalEdgeStyle;rounded=0;orthogonalLoop=1;jettySize=auto;html=1;entryX=1;entryY=0.527;entryDx=0;entryDy=0;entryPerimeter=0;" parent="1" source="-1Fb5h5Wd84T3EEWfz7V-14" target="-1Fb5h5Wd84T3EEWfz7V-1" edge="1">
          <mxGeometry relative="1" as="geometry">
            <Array as="points">
              <mxPoint x="590" y="100" />
            </Array>
          </mxGeometry>
        </mxCell>
        <mxCell id="0_Up20GVfm_6qlC_5zqZ-3" value="1..*&lt;br&gt;pasajeros" style="text;html=1;align=center;verticalAlign=middle;resizable=0;points=[];autosize=1;strokeColor=none;fillColor=none;" parent="1" vertex="1">
          <mxGeometry x="500" y="100" width="80" height="40" as="geometry" />
        </mxCell>
        <mxCell id="xJYosJz6HqWL34NEjG4F-2" value="Vehiculo" style="swimlane;fontStyle=1;align=center;verticalAlign=top;childLayout=stackLayout;horizontal=1;startSize=26;horizontalStack=0;resizeParent=1;resizeParentMax=0;resizeLast=0;collapsible=1;marginBottom=0;whiteSpace=wrap;html=1;fontSize=12;" parent="1" vertex="1">
          <mxGeometry x="20" y="418" width="200" height="170" as="geometry" />
        </mxCell>
        <mxCell id="xJYosJz6HqWL34NEjG4F-3" value="&lt;font style=&quot;font-size: 12px;&quot;&gt;- descripcion: String&lt;br style=&quot;&quot;&gt;&lt;/font&gt;&lt;span style=&quot;font-size: 12px;&quot;&gt;- capacidad: Integer&lt;/span&gt;&lt;br style=&quot;font-size: 12px;&quot;&gt;&lt;span style=&quot;font-size: 12px;&quot;&gt;- año: Integer&lt;/span&gt;&lt;br style=&quot;font-size: 12px;&quot;&gt;&lt;span style=&quot;font-size: 12px;&quot;&gt;- valor: Real&lt;/span&gt;" style="text;strokeColor=none;fillColor=none;align=left;verticalAlign=top;spacingLeft=4;spacingRight=4;overflow=hidden;rotatable=0;points=[[0,0.5],[1,0.5]];portConstraint=eastwest;whiteSpace=wrap;html=1;fontSize=16;" parent="xJYosJz6HqWL34NEjG4F-2" vertex="1">
          <mxGeometry y="26" width="200" height="84" as="geometry" />
        </mxCell>
        <mxCell id="xJYosJz6HqWL34NEjG4F-4" value="" style="line;strokeWidth=1;fillColor=none;align=left;verticalAlign=middle;spacingTop=-1;spacingLeft=3;spacingRight=3;rotatable=0;labelPosition=right;points=[];portConstraint=eastwest;strokeColor=inherit;fontSize=16;" parent="xJYosJz6HqWL34NEjG4F-2" vertex="1">
          <mxGeometry y="110" width="200" height="8" as="geometry" />
        </mxCell>
        <mxCell id="xJYosJz6HqWL34NEjG4F-5" value="+ &amp;lt;&amp;lt;create&amp;gt;&amp;gt; (descripcion:String, capacidad:Integer, año:Integer, valor:Real)" style="text;strokeColor=none;fillColor=none;align=left;verticalAlign=top;spacingLeft=4;spacingRight=4;overflow=hidden;rotatable=0;points=[[0,0.5],[1,0.5]];portConstraint=eastwest;whiteSpace=wrap;html=1;fontSize=12;" parent="xJYosJz6HqWL34NEjG4F-2" vertex="1">
          <mxGeometry y="118" width="200" height="52" as="geometry" />
        </mxCell>
      </root>
    </mxGraphModel>
  </diagram>
</mxfile>
